HIERARCHY
ROOT Hips
{
	OFFSET 0.000000 0.000000 0.000000
	CHANNELS 6 Xposition Yposition Zposition Zrotation Yrotation Xrotation 
	JOINT LHipJoint
	{
		OFFSET 0.000000 0.000000 0.000000
		CHANNELS 3 Zrotation Yrotation Xrotation
		JOINT LeftUpLeg
		{
			OFFSET 1.363060 -1.794630 0.839290
			CHANNELS 3 Zrotation Yrotation Xrotation
			JOINT LeftLeg
			{
				OFFSET 2.448110 -6.726130 0.000000
				CHANNELS 3 Zrotation Yrotation Xrotation
				JOINT LeftFoot
				{
					OFFSET 2.562200 -7.039590 0.000000
					CHANNELS 3 Zrotation Yrotation Xrotation
					JOINT LeftToeBase
					{
						OFFSET 0.157640 -0.433110 2.322550
						CHANNELS 3 Zrotation Yrotation Xrotation
						End Site
						{
							OFFSET 0.000000 0.000000 0.000000
						}
					}
				}
			}
		}
	}
	JOINT RHipJoint
	{
		OFFSET 0.000000 0.000000 0.000000
		CHANNELS 3 Zrotation Yrotation Xrotation
		JOINT RightUpLeg
		{
			OFFSET -1.305520 -1.794630 0.839290
			CHANNELS 3 Zrotation Yrotation Xrotation
			JOINT RightLeg
			{
				OFFSET -2.542530 -6.985550 0.000000
				CHANNELS 3 Zrotation Yrotation Xrotation
				JOINT RightFoot
				{
					OFFSET -2.568260 -7.056230 0.000000
					CHANNELS 3 Zrotation Yrotation Xrotation
					JOINT RightToeBase
					{
						OFFSET -0.164730 -0.452590 2.363150
						CHANNELS 3 Zrotation Yrotation Xrotation
						End Site
						{
							OFFSET 0.000000 0.000000 0.000000
						}
					}
				}
			}
		}
	}
	JOINT LowerBack
	{
		OFFSET 0.000000 0.000000 0.000000
		CHANNELS 3 Zrotation Yrotation Xrotation
		JOINT Spine
		{
			OFFSET 0.028270 2.035590 -0.193380
			CHANNELS 3 Zrotation Yrotation Xrotation
			JOINT Spine1
			{
				OFFSET 0.056720 2.048850 -0.042750
				CHANNELS 3 Zrotation Yrotation Xrotation
				JOINT Neck
				{
					OFFSET 0.000000 0.000000 0.000000
					CHANNELS 3 Zrotation Yrotation Xrotation
					JOINT Neck1
					{
						OFFSET -0.054170 1.746240 0.172020
						CHANNELS 3 Zrotation Yrotation Xrotation
						JOINT Head
						{
							OFFSET 0.104070 1.761360 -0.123970
							CHANNELS 3 Zrotation Yrotation Xrotation
							End Site
							{
								OFFSET 0.000000 0.000000 0.000000
							}
						}
					}
				}
				JOINT LeftShoulder
				{
					OFFSET 0.000000 0.000000 0.000000
					CHANNELS 3 Zrotation Yrotation Xrotation
					JOINT LeftArm
					{
						OFFSET 3.362410 1.200890 -0.311210
						CHANNELS 3 Zrotation Yrotation Xrotation
						JOINT LeftForeArm
						{
							OFFSET 4.983000 -0.000000 -0.000000
							CHANNELS 3 Zrotation Yrotation Xrotation
							JOINT LeftHand
							{
								OFFSET 3.483560 -0.000000 -0.000000
								CHANNELS 3 Zrotation Yrotation Xrotation
								JOINT LeftFingerBase
								{
									OFFSET 0.000000 0.000000 0.000000
									CHANNELS 3 Zrotation Yrotation Xrotation
									JOINT LeftHandIndex1
									{
										OFFSET 0.715260 -0.000000 -0.000000
										CHANNELS 3 Zrotation Yrotation Xrotation
										End Site
										{
											OFFSET 0.000000 0.000000 0.000000
										}
									}
								}
								JOINT LThumb
								{
									OFFSET 0.000000 0.000000 0.000000
									CHANNELS 3 Zrotation Yrotation Xrotation
									End Site
									{
										OFFSET 0.000000 0.000000 0.000000
									}
								}
							}
						}
					}
				}
				JOINT RightShoulder
				{
					OFFSET 0.000000 0.000000 0.000000
					CHANNELS 3 Zrotation Yrotation Xrotation
					JOINT RightArm
					{
						OFFSET -3.136600 1.374050 -0.404650
						CHANNELS 3 Zrotation Yrotation Xrotation
						JOINT RightForeArm
						{
							OFFSET -5.241900 -0.000000 -0.000000
							CHANNELS 3 Zrotation Yrotation Xrotation
							JOINT RightHand
							{
								OFFSET -3.444170 -0.000000 -0.000000
								CHANNELS 3 Zrotation Yrotation Xrotation
								JOINT RightFingerBase
								{
									OFFSET 0.000000 0.000000 0.000000
									CHANNELS 3 Zrotation Yrotation Xrotation
									JOINT RightHandIndex1
									{
										OFFSET -0.622530 -0.000000 -0.000000
										CHANNELS 3 Zrotation Yrotation Xrotation
										End Site
										{
											OFFSET 0.000000 0.000000 0.000000
										}
									}
								}
								JOINT RThumb
								{
									OFFSET 0.000000 0.000000 0.000000
									CHANNELS 3 Zrotation Yrotation Xrotation
									End Site
									{
										OFFSET 0.000000 0.000000 0.000000
									}
								}
							}
						}
					}
				}
			}
		}
	}
}
MOTION
Frames: 4
Frame Time: 0.008333
-7.078477 16.387688 -2.467601 7.101074 76.143607 21.965726 -9.751312 -1.107247 0.689408 -4.687396 4.610469 -46.039199 -1.581666 1.310604 23.461816 0.925427 5.137052 11.622876 1.876600 -0.000000 -39.773100 10.572140 -2.344920 -1.220282 1.241305 2.623315 -4.561753 0.167543 -3.165473 43.091787 0.501980 7.913627 3.323122 1.323300 0.000000 -85.981100 -4.741383 0.641545 0.961917 -1.355785 0.961981 -2.487246 -4.297200 0.885047 1.705842 9.342846 -5.666076 -4.776653 -1.894106 -0.179284 0.689775 0.000000 0.000000 0.000000 -9.113615 12.279359 1.628909 -66.927626 15.829669 12.777068 -4.222003 -24.720512 -0.026139 -12.726042 4.747099 -0.538134 -0.058683 -0.093956 0.000000 0.000000 0.000000 0.000000 0.000000 0.000000 0.000000 8.029846 -1.558101 0.836111 44.368478 26.546237 27.948358 0.620588 77.877867 0.033108 11.864886 8.615389 0.940811 -0.172993 -0.294291 0.000000 0.000000 0.000000 0.000000 0.000000 0.000000 0.000000 
-6.899271 16.387703 -2.459377 8.534056 75.626888 23.287498 -9.693276 -1.071023 0.480400 -5.358392 4.873977 -46.088335 -1.579961 1.422273 25.331157 1.005024 5.720253 10.503106 1.968600 0.000001 -38.836900 10.827896 -2.295004 -1.281401 0.589898 2.106518 -6.182715 -0.224182 -3.355473 46.293347 0.208331 5.989582 5.163867 1.244200 -0.000000 -84.333401 -5.196071 0.543832 1.183871 -1.447137 0.892620 -2.464726 -4.340185 0.816363 1.649195 9.490198 -5.726549 -4.762391 -1.924578 -0.181207 0.687638 0.000000 0.000000 0.000000 -9.081772 11.800661 1.682220 -66.984918 14.738082 12.135507 -4.265720 -23.817212 -0.024741 -12.435806 4.859261 -0.536998 -0.062608 -0.087858 0.000000 0.000000 0.000000 0.000000 0.000000 0.000000 0.000000 8.254153 -1.669633 0.830663 45.266505 25.531321 27.998941 0.679930 77.127222 0.032992 11.833013 8.535586 0.928564 -0.165603 -0.287335 0.000000 0.000000 0.000000 0.000000 0.000000 0.000000 0.000000 
-6.725790 16.392880 -2.453484 9.578850 75.044165 24.209299 -9.630226 -1.030777 0.269820 -5.952108 5.147578 -45.958723 -1.591228 1.509723 26.950337 1.079968 6.266286 9.111025 2.002701 0.000000 -38.466000 11.070803 -2.196955 -1.353692 0.028411 1.616970 -7.805602 -0.584734 -3.516874 49.399179 -0.136883 3.653847 6.725305 0.937100 -0.000001 -81.444799 -5.544141 0.459256 1.441975 -1.518380 0.830425 -2.436099 -4.384924 0.755417 1.586599 9.601152 -5.759306 -4.740928 -1.959253 -0.183464 0.687023 0.000000 0.000000 0.000000 -9.061934 11.306519 1.735180 -67.044296 13.595166 11.468143 -4.303296 -22.990842 -0.023249 -12.147591 4.946743 -0.532760 -0.066141 -0.081247 0.000000 0.000000 0.000000 0.000000 0.000000 0.000000 0.000000 8.459342 -1.753985 0.827334 46.180637 24.526519 28.031286 0.745182 76.273097 0.032744 11.804740 8.468903 0.918117 -0.158315 -0.279970 -0.000000 0.000000 0.000000 0.000000 0.000000 0.000000 0.000000 
-6.557200 16.402902 -2.450344 10.228147 74.387892 24.723934 -9.569510 -0.987355 0.061019 -6.447552 5.437254 -45.655454 -1.610484 1.575498 28.322791 1.155148 6.789418 7.563063 1.986600 -0.000001 -38.607900 11.292260 -2.057217 -1.433517 -0.429098 1.176533 -9.410026 -0.904909 -3.654506 52.373048 -0.521945 0.971895 7.885015 0.402700 0.000000 -77.367200 -5.779610 0.389380 1.727527 -1.568313 0.776710 -2.401403 -4.430924 0.703437 1.525079 9.681985 -5.769962 -4.716008 -1.997852 -0.185984 0.687017 0.000000 0.000000 0.000000 -9.054106 10.830372 1.784267 -67.098982 12.400125 10.805139 -4.333450 -22.266650 -0.021678 -11.866517 4.999807 -0.524919 -0.069205 -0.074264 0.000000 0.000000 0.000000 0.000000 0.000000 0.000000 0.000000 8.656161 -1.817847 0.826910 47.077668 23.561825 28.060457 0.815797 75.317335 0.032336 11.776241 8.418239 0.909269 -0.151163 -0.272194 -0.000000 0.000000 0.000000 0.000000 0.000000 0.000000 0.000000 
